# xmcd
#
# Track frame offsets: 
#        150
#        9431
#        22522
#        31332
#        39014
#        47848
#        59633
#        68043
#        79232
#        88808
#        98836
#        106106
#        118375
#        129068
#        139085
#        149465
#        158654
#        168065
#        180141
#        189686
#        200348
#        212390
#        222569
#        232050
#        243258
#        255412
#        266565
#        278485
#        287884
#        299348
#        307911
#        319583
#        329412
#        335895
#        348500
#
# Disc length: 4794 seconds
#
# Revision: 2
# Processed by: cddbd v1.5.2PL0 Copyright (c) Steve Scherf et al.
# Submitted via: ExactAudioCopyFreeDBPlugin 1.0
#
DISCID=f312b823
DTITLE=Various Artist - In The Shadow Of The Sun - Memphis Area R&B And Rock 
DTITLE=And Roll [CD 3)
DYEAR=2014
DGENRE=Rock and Roll
TTITLE0=Lloyd Arnold - Hang Out
TTITLE1=Jody Chastain - Jody's Beat
TTITLE2=Jimmy Pritchett - Nothing On My Mind
TTITLE3=The Four Kings (With The Willie Mitchell Orchestra) - Rag Mop
TTITLE4=Bobby Lollar (With Pete Beaver's Band) - Bad Bad Boy
TTITLE5=Freddie Caddell And The Twirls - Gotta Big Fat Mama
TTITLE6=Billy Wayne - I Love My Baby
TTITLE7=Frank Cathey - Witchapoo
TTITLE8=Eddie Cash And The Cashiers - Come On Home
TTITLE9=Wayne Williams And The Sure Shots - Red Hot Mama
TTITLE10=Ferrell Duncan And His Rockers - Flying Saucer Rocket
TTITLE11=Willie Mitchell Orchestra (Feat. Billy Taylor) - Lizzie Lou
TTITLE12=Wilbur Steinberg Orchestra - Mop Bop Boogie
TTITLE13=Bobby Roberts And The Bad Habits - Hop, Skip And Jump
TTITLE14=Tommy Hawk - Rockin' At The Zoo
TTITLE15=Bobby Roberts (With Highpockets' Delta Rockets) - Big Sandy
TTITLE16=Charles Dean And The Rondells - Train Whistle Boogie
TTITLE17=Jody Chastain - My My
TTITLE18=Hoyt Johnson And The Four Recorders - Standing In Your Window
TTITLE19=Larry Kennon - Monkey Love
TTITLE20=Charlie Feathers - Jungle Fever
TTITLE21=Freddie Caddell And The Twirls - At The Rockhouse
TTITLE22=Paul Little - I Want To Walk With You
TTITLE23=Willie Mitchell Orchestra (Feat. Billy Taylor) - Wasting My T
TTITLE23=ime
TTITLE24=Jerry Grimes - My Rock And Roll Daddy
TTITLE25=Levi Seabury And His Band - Boogie Beat
TTITLE26=The Five Stars (With Milliard Lee And Orchestra) - Hey Juanit
TTITLE26=a
TTITLE27=Ferrell Duncan And His Rockers - Little Susie
TTITLE28=Tippo Lite's All Stars - Jumping This Morning
TTITLE29=Eddie Cash And The Cashiers - Land Of Promises
TTITLE30=Bobby Roberts (With Highpockets' Delta Rockets) - She's My Wo
TTITLE30=man
TTITLE31=Billy Wayne - Walking And Strolling
TTITLE32=Merdell Floyd - Juke Box Mama
TTITLE33=Bobby Roberts And The Bad Habits - Cravin'
TTITLE34=Tommy Hawk - I Thought About Living
EXTD=
EXTT0=
EXTT1=
EXTT2=
EXTT3=
EXTT4=
EXTT5=
EXTT6=
EXTT7=
EXTT8=
EXTT9=
EXTT10=
EXTT11=
EXTT12=
EXTT13=
EXTT14=
EXTT15=
EXTT16=
EXTT17=
EXTT18=
EXTT19=
EXTT20=
EXTT21=
EXTT22=
EXTT23=
EXTT24=
EXTT25=
EXTT26=
EXTT27=
EXTT28=
EXTT29=
EXTT30=
EXTT31=
EXTT32=
EXTT33=
EXTT34=
PLAYORDER=
